<svg xmlns="http://www.w3.org/2000/svg" xmlns:xlink="http://www.w3.org/1999/xlink" version="1.1" x="0px" y="0px" viewBox="0 0 100 125" enable-background="new 0 0 100 100" xml:space="preserve"><g><path d="M49.312,18.51c-10.633,0.251-20.875,5.886-26.595,15.761c-7.619,13.167-4.577,29.541,6.363,39.25   c0.028,0.027,0.056,0.027,0.056,0.027c1.033,0.92,2.149,1.785,3.321,2.594c0.586,0.391,1.172,0.754,1.814,1.115   c1.814,1.061,3.712,1.898,5.637,2.539c0.418,0.168,0.865,0.307,1.312,0.418c0.893,0.252,1.786,0.502,2.679,0.67   c0.921,0.168,1.842,0.307,2.735,0.418c0.335,0.029,0.67,0.084,1.005,0.084c0.279,0.027,0.558,0.057,0.837,0.057   c0.251,0.027,0.447,0.027,0.67,0.027c0.083,0,0.167,0,0.251,0c0.949,0.027,1.87,0,2.818-0.084c0.447-0.027,0.921-0.055,1.368-0.111   c0.278-0.027,0.53-0.057,0.809-0.084c0.279-0.055,0.559-0.084,0.81-0.139c1.005-0.168,1.981-0.363,2.958-0.643   c0.308-0.084,0.614-0.166,0.949-0.279c0.167-0.027,0.335-0.111,0.502-0.166c0.475-0.141,0.949-0.307,1.424-0.475   c0.251-0.111,0.53-0.195,0.781-0.307c0.167-0.084,0.362-0.168,0.558-0.252c2.01,1.59,4.549,2.566,7.312,2.566   c6.503,0,11.805-5.299,11.805-11.799c0-2.762-0.948-5.273-2.539-7.281c6.223-14.478,0.781-31.633-13.172-39.695   C60.586,19.737,54.894,18.398,49.312,18.51L49.312,18.51z M49.368,20.1c5.302-0.14,10.688,1.171,15.6,3.989   c13.088,7.56,18.279,23.431,12.81,37.045c-2.121-2.008-4.968-3.264-8.094-3.264c-1.674,0-3.236,0.363-4.688,1.004   c-4.382-2.65-9.489-4.156-14.986-4.156c-10.075,0-18.949,5.105-24.223,12.859c-6.726-9.26-7.786-21.981-1.703-32.525   C29.526,25.651,39.266,20.323,49.368,20.1L49.368,20.1z M50.01,23.586c-6.949,0-11.331,4.491-11.331,9.958   c0,3.738,0.81,8.286,2.624,11.995c1.786,3.738,4.66,6.723,8.679,6.864c0.028,0,0.028,0,0.056,0   c4.018-0.141,6.893-3.125,8.679-6.864c1.813-3.709,2.651-8.256,2.651-11.995C61.368,28.078,56.958,23.586,50.01,23.586   L50.01,23.586z M50.01,25.148c6.307,0,9.768,3.738,9.768,8.396c0,3.515-0.81,7.895-2.484,11.326   c-1.646,3.403-4.019,5.831-7.255,5.942c-0.028,0-0.028,0-0.056,0c-3.237-0.111-5.609-2.539-7.256-5.942   c-1.646-3.431-2.484-7.811-2.484-11.326C40.242,28.887,43.73,25.148,50.01,25.148L50.01,25.148z M50.01,56.28   c4.855,0,9.377,1.283,13.312,3.459c-3.266,2.121-5.442,5.775-5.442,9.959c0,3.123,1.229,5.969,3.237,8.09   c-0.111,0.027-0.195,0.084-0.307,0.111c-0.111,0.055-0.195,0.084-0.307,0.139c-0.168,0.057-0.335,0.111-0.503,0.168   c-0.278,0.084-0.558,0.195-0.865,0.279c-0.139,0.055-0.278,0.084-0.418,0.139c-0.308,0.084-0.643,0.168-0.949,0.279   c-0.446,0.111-0.893,0.223-1.367,0.334h-0.028c-0.083,0-0.167,0.029-0.223,0.057c-0.391,0.084-0.781,0.139-1.2,0.223   c-0.028,0-0.056,0-0.084,0c-0.53,0.111-1.061,0.141-1.591,0.195c-0.335,0.057-0.67,0.084-1.032,0.111   c-0.419,0.029-0.865,0.057-1.284,0.084c-0.446,0-0.893,0-1.311,0c-0.447-0.027-0.865-0.027-1.312-0.055   c-0.418-0.029-0.837-0.057-1.284-0.111c-0.418-0.029-0.865-0.084-1.284-0.141c-7.284-1.061-14.065-4.797-18.921-10.74   C31.787,61.302,40.298,56.28,50.01,56.28L50.01,56.28z M69.684,59.46c5.665,0,10.271,4.576,10.271,10.238   s-4.605,10.238-10.271,10.238S59.47,75.36,59.47,69.698S64.019,59.46,69.684,59.46L69.684,59.46z M69.963,61.356   c-1.396,0.057-2.791,0.615-3.963,1.814c-0.335,0.279-0.335,0.865,0,1.172c0.308,0.307,0.865,0.25,1.145-0.084   c1.34-1.395,3.042-1.59,4.409-1.145c1.367,0.447,2.232,1.479,2.148,2.65c-0.111,1.115-0.362,2.037-2.288,2.873   c-0.753,0.336-1.34,0.559-1.842,1.033c-0.475,0.445-0.67,1.115-0.67,1.869c0,0.418,0.391,0.779,0.81,0.779s0.781-0.361,0.781-0.779   c0-0.559,0.028-0.586,0.168-0.754c0.167-0.141,0.613-0.363,1.367-0.697c2.372-1.033,3.125-2.762,3.237-4.213   c0.167-2.035-1.34-3.654-3.237-4.268c-0.446-0.139-0.977-0.223-1.479-0.252C70.354,61.329,70.158,61.329,69.963,61.356   L69.963,61.356z M69.684,74.468c-0.642,0-1.144,0.559-1.144,1.172c0,0.643,0.502,1.172,1.144,1.172   c0.614,0,1.173-0.529,1.173-1.172C70.856,75.026,70.298,74.468,69.684,74.468L69.684,74.468z"/></g><text x="0" y="115" fill="#000000" font-size="5px" font-weight="bold" font-family="'Helvetica Neue', Helvetica, Arial-Unicode, Arial, Sans-serif">Created by artworkbean</text><text x="0" y="120" fill="#000000" font-size="5px" font-weight="bold" font-family="'Helvetica Neue', Helvetica, Arial-Unicode, Arial, Sans-serif">from the Noun Project</text></svg>